<svg xmlns="http://www.w3.org/2000/svg" xmlns:xlink="http://www.w3.org/1999/xlink" preserveAspectRatio="xMidYMid" width="1360" height="1194" viewBox="0 0 1360 1194">
  <defs>
    <style>
      .cls-1 {
        fill: #eff2f8;
        fill-rule: evenodd;
      }
    </style>
  </defs>
  <path d="M1362.000,241.243 C1362.000,241.243 1349.000,230.252 1344.000,230.252 C1339.000,230.252 1334.000,233.249 1323.000,222.258 C1312.000,211.267 1306.000,198.278 1296.000,199.277 C1286.000,200.275 1257.000,206.271 1251.000,202.274 C1245.000,198.278 1237.000,183.289 1216.000,187.286 C1195.000,191.283 1178.000,198.278 1159.000,199.277 C1140.000,200.275 1131.000,191.283 1129.000,187.286 C1127.000,183.289 1120.000,180.292 1114.000,183.289 C1108.000,186.287 1091.000,182.290 1088.000,177.294 C1085.000,172.298 1038.000,133.329 1028.000,137.326 C1018.000,141.323 990.000,154.312 961.000,154.312 C932.000,154.312 914.000,132.331 909.000,134.329 C904.000,136.327 895.000,148.317 891.000,147.319 C887.000,146.320 886.000,144.321 886.000,144.321 C886.000,144.321 874.000,158.309 868.000,150.316 C862.000,142.323 848.000,136.327 840.000,136.327 C832.000,136.327 828.000,131.330 816.000,130.332 C804.000,129.332 788.000,120.340 786.000,114.344 C784.000,108.349 776.000,119.341 770.000,119.341 C764.000,119.341 736.000,107.350 726.000,107.350 C716.000,107.350 701.000,108.349 691.000,108.349 C681.000,108.349 664.000,95.360 659.000,93.361 C654.000,91.363 643.000,100.356 632.000,98.357 C621.000,96.359 615.000,93.361 611.000,96.359 C607.000,99.357 606.000,103.354 585.000,91.363 C564.000,79.372 562.000,91.363 525.000,90.364 C488.000,89.365 447.000,75.376 439.000,62.387 C431.000,49.397 429.000,65.384 420.000,62.387 C411.000,59.389 392.000,64.385 379.000,59.389 C366.000,54.393 378.000,56.391 357.000,50.396 C336.000,44.401 331.000,38.405 320.000,43.401 C309.000,48.397 294.000,36.407 288.000,37.407 C282.000,38.405 272.000,44.401 265.000,43.401 C258.000,42.403 247.000,43.401 240.000,45.400 C233.000,47.399 209.000,32.411 201.000,23.417 C193.000,14.425 177.000,12.426 156.000,16.424 C135.000,20.420 104.000,6.432 89.000,2.434 C74.000,-1.562 43.000,-1.562 32.000,9.429 C21.000,20.420 -6.000,39.405 -6.000,39.405 L-7.000,1203.000 L1365.000,1198.000 L1362.000,241.243 Z" class="cls-1"/>
</svg>
