<svg xmlns="http://www.w3.org/2000/svg" xmlns:xlink="http://www.w3.org/1999/xlink" preserveAspectRatio="none" width="1360" height="585" viewBox="0 0 1360 585">
  <defs>
    <style>
      .cls-1 {
        fill: #d81b3f;
      }

      .cls-1, .cls-2 {
        fill-rule: evenodd;
      }

      .cls-2 {
        fill: #fff;
      }
    </style>
  </defs>
  <g>
    <path d="M-5.000,241.243 C-5.000,241.243 8.000,230.252 13.000,230.252 C18.000,230.252 23.000,233.249 34.000,222.258 C45.000,211.267 51.000,198.278 61.000,199.277 C71.000,200.276 100.000,206.271 106.000,202.274 C112.000,198.278 120.000,183.289 141.000,187.286 C162.000,191.283 179.000,198.278 198.000,199.277 C217.000,200.276 226.000,191.283 228.000,187.286 C230.000,183.289 237.000,180.292 243.000,183.289 C249.000,186.287 266.000,182.290 269.000,177.294 C272.000,172.298 319.000,133.329 329.000,137.326 C339.000,141.323 367.000,154.312 396.000,154.312 C425.000,154.312 443.000,132.331 448.000,134.329 C453.000,136.328 462.000,148.317 466.000,147.318 C470.000,146.319 471.000,144.320 471.000,144.320 C471.000,144.320 483.000,158.309 489.000,150.315 C495.000,142.322 509.000,136.328 517.000,136.328 C525.000,136.328 529.000,131.331 541.000,130.332 C553.000,129.332 569.000,120.340 571.000,114.344 C573.000,108.349 581.000,119.340 587.000,119.340 C593.000,119.340 621.000,107.351 631.000,107.351 C641.000,107.351 656.000,108.349 666.000,108.349 C676.000,108.349 693.000,95.360 698.000,93.362 C703.000,91.363 714.000,100.356 725.000,98.357 C736.000,96.359 742.000,93.362 746.000,96.359 C750.000,99.357 751.000,103.354 772.000,91.363 C793.000,79.372 795.000,91.363 832.000,90.364 C869.000,89.365 910.000,75.376 918.000,62.387 C926.000,49.397 928.000,65.384 937.000,62.387 C946.000,59.389 965.000,64.385 978.000,59.389 C991.000,54.393 979.000,56.391 1000.000,50.396 C1021.000,44.401 1026.000,38.405 1037.000,43.402 C1048.000,48.397 1063.000,36.407 1069.000,37.407 C1075.000,38.405 1085.000,44.401 1092.000,43.402 C1099.000,42.403 1110.000,43.402 1117.000,45.400 C1124.000,47.398 1148.000,32.411 1156.000,23.418 C1164.000,14.425 1180.000,12.427 1201.000,16.423 C1222.000,20.420 1253.000,6.432 1268.000,2.435 C1283.000,-1.562 1314.000,-1.562 1325.000,9.429 C1336.000,20.420 1363.000,39.405 1363.000,39.405 L1363.000,584.999 L-14.000,584.999 L-5.000,241.243 Z" class="cls-1"/>
    <path d="M1422.000,667.001 L769.934,632.736 C769.934,632.736 788.464,605.422 794.861,591.248 C801.258,577.075 830.250,566.100 845.694,564.529 C861.137,562.956 895.082,565.064 913.307,553.892 C931.532,542.720 947.204,538.925 957.869,544.503 C968.534,550.081 996.286,555.602 1002.125,551.256 C1007.965,546.908 1017.899,542.081 1024.799,540.537 C1031.699,538.993 1038.929,529.846 1044.187,526.787 C1049.445,523.728 1067.718,529.632 1076.237,521.066 C1084.756,512.499 1091.555,516.337 1113.317,514.510 C1135.080,512.681 1123.149,515.061 1137.076,515.131 C1151.003,515.202 1167.004,503.803 1176.482,503.421 C1185.961,503.038 1182.171,487.378 1194.252,496.694 C1206.332,506.011 1249.629,504.579 1284.587,492.415 C1319.545,480.252 1317.170,468.329 1341.055,472.109 C1364.940,475.888 1364.460,471.796 1367.140,467.577 C1369.820,463.358 1376.493,464.037 1387.488,462.012 C1398.483,459.987 1405.587,447.682 1410.971,447.781 C1412.987,447.818 1417.123,448.701 1422.000,449.606 L1422.000,667.001 Z" class="cls-2"/>
  </g>
</svg>
