<svg xmlns="http://www.w3.org/2000/svg" xmlns:xlink="http://www.w3.org/1999/xlink" preserveAspectRatio="xMidYMid" width="1025" height="204" viewBox="0 0 1025 204">
  <defs>
    <style>
      .cls-1 {
        fill: #fff;
        fill-rule: evenodd;
      }
    </style>
  </defs>
  <path d="M-27.000,-16.236 C-27.000,-16.236 -14.000,-5.243 -9.000,-5.243 C-4.000,-5.243 1.000,-8.241 12.000,2.751 C23.000,13.743 29.000,26.734 39.000,25.735 C49.000,24.735 78.001,18.740 84.001,22.737 C90.001,26.734 98.001,41.724 119.001,37.727 C140.001,33.729 157.001,26.734 176.001,25.735 C195.001,24.735 204.001,33.729 206.001,37.727 C208.001,41.724 215.001,44.721 221.001,41.724 C227.001,38.726 244.001,42.723 247.001,47.719 C250.001,52.716 297.002,91.689 307.002,87.692 C317.002,83.694 345.002,70.704 374.002,70.704 C403.002,70.704 421.002,92.688 426.002,90.690 C431.002,88.691 440.002,76.699 444.002,77.699 C448.002,78.698 449.002,80.696 449.002,80.696 C449.002,80.696 461.003,66.706 467.003,74.700 C473.003,82.695 487.003,88.691 495.003,88.691 C503.003,88.691 507.003,93.687 519.003,94.686 C531.003,95.686 547.003,104.680 549.003,110.675 C551.003,116.671 559.003,105.679 565.003,105.679 C571.003,105.679 599.003,117.670 609.003,117.670 C619.003,117.670 634.003,116.671 644.003,116.671 C654.004,116.671 671.004,129.662 676.004,131.660 C681.004,133.659 692.004,124.665 703.004,126.664 C714.004,128.663 720.004,131.660 724.004,128.663 C728.004,125.665 729.004,121.667 750.004,133.659 C771.004,145.651 773.004,133.659 810.004,134.658 C847.004,135.658 888.005,149.648 896.005,162.639 C904.005,175.630 906.005,159.640 915.005,162.639 C924.005,165.637 943.005,160.640 956.005,165.637 C969.005,170.633 957.005,168.635 978.005,174.630 C999.005,180.626 1004.005,186.622 1015.005,181.625 C1026.005,176.629 1041.005,188.621 1047.006,187.621 C1053.006,186.622 1063.006,180.626 1070.006,181.625 C1077.006,182.624 1088.006,181.625 1095.006,179.627 C1102.006,177.628 1132.187,186.035 1140.187,195.029 C1148.187,204.023 1173.195,206.028 1194.195,202.030 C1215.196,198.033 1237.204,189.032 1252.205,193.029 C1267.205,197.027 1287.212,184.020 1298.212,173.027 C1309.212,162.035 1341.007,185.623 1341.007,185.623 L1341.007,-109.001 L-36.000,-109.001 L-27.000,-16.236 Z" class="cls-1"/>
</svg>
