<?xml version="1.0" encoding="utf-8"?>
<!-- Generator: Adobe Illustrator 19.2.1, SVG Export Plug-In . SVG Version: 6.00 Build 0)  -->
<svg version="1.1" id="Слой_1" xmlns="http://www.w3.org/2000/svg" xmlns:xlink="http://www.w3.org/1999/xlink" x="0px" y="0px"
	 viewBox="143.1 146.7 561.3 686.6" style="enable-background:new 143.1 146.7 561.3 686.6;" xml:space="preserve">
<style type="text/css">
	.st0{fill:#F4FF00;}
</style>
<path class="st0" d="M376,146.7c6.5,6.5,3.7,15,2.8,22.5c-0.9,6.5,0.9,14-2.8,18.7c-3.7,5.6-11.2-0.9-17.8-0.9
	c-16.8,0-15.9,0-8.4-15c4.7-10.3,14-15.9,19.6-25.3C371.4,146.7,373.2,146.7,376,146.7z"/>
<path class="st0" d="M419.1,370.3c0-25.3,5.6-47.7,8.4-71.1c0.9-15,0.9-30.9,0.9-45.8c0-11.2,2.8-21.5,6.5-31.8
	c10.3-23.4,34.6-25.3,57.1-14c19.6,10.3,31.8,28.1,41.2,47.7c12.2,24.3,28.1,48.6,29.9,75.8c2.8,40.2-3.7,79.5-41.2,103.8
	c-19.6,13.1-44,17.8-67.4,6.5c-10.3-4.7-15-15-20.6-23.4C423.8,403,419.1,386.2,419.1,370.3z"/>
<path class="st0" d="M186.2,368.4c1.9-13.1,0.9-29.9,13.1-42.1c3.7-2.8,6.5-8.4,11.2-6.5c5.6,1.9,3.7,6.5,4.7,11.2
	c1.9,12.2,4.7,23.4,11.2,33.7c1.9,2.8,2.8,5.6,0.9,8.4c-1.9,2.8-4.7,0-6.5-0.9c-10.3-1.9-20.6-5.6-29,5.6c-0.9,1.9-3.7,1.9-4.7,0
	C185.2,375.9,186.2,373.1,186.2,368.4z"/>
<path class="st0" d="M471.5,191.6c-9.4,1.9-13.1-1.9-13.1-11.2c0-7.5-1.9-15-0.9-22.5c1.9-9.4,5.6-11.2,13.1-4.7
	c5.6,4.7,8.4,10.3,12.2,16.8c3.7,5.6,6.5,12.2,10.3,17.8c0.9,1.9,2.8,3.7,0.9,5.6c-1.9,1.9-3.7,1.9-5.6,0.9
	C482.7,193.5,477.1,190.7,471.5,191.6z"/>
<path class="st0" d="M613.6,324.5c1.9,1.9,3.7,2.8,5.6,4.7c9.4,9.4,13.1,22.5,19.6,33.7c2.8,4.7-0.9,6.5-4.7,5.6
	c-8.4-1.9-15.9-1.9-23.4,0c-3.7,0.9-7.5-0.9-6.5-4.7c0.9-11.2,2.8-22.5,4.7-32.7C607.1,327.3,609,324.5,613.6,324.5z"/>
<path class="st0" d="M393.8,293.6c-1.9-22.5-6.5-44-12.2-65.5c-4.7-17.8-15-24.3-15-24.3c-4.7-4.7-10.3-7.5-16.8-5.6
	c-12.2,3.7-23.4,10.3-33.7,17.8c-18.7,13.1-32.7,30.9-46.8,48.6c-8.4,10.3-15,24.3-15.9,38.4c-1.9,29-0.9,57.1,12.2,84.2
	c9.4,20.6,27.1,33.7,45.8,44c9.4,5.6,21.5,1.9,31.8,0c20.6-1.9,43-12.2,47.7-42.1c0.9-4.7,0.9-8.4,0.9-13.1
	C397.6,347.9,396.6,320.7,393.8,293.6z"/>
<path class="st0" d="M280.6,457.3c-9.4-16.8-23.4-31.8-33.7-47.7c-5.6-9.4-13.1-15.9-20.6-21.5c-8.4-6.5-16.8-6.5-25.3-0.9
	c-7.5,3.7-13.1,10.3-17.8,16.8c-20.6,31.8-36.5,66.4-40.2,105.7c0,2.8,0,17.8,0.9,20.6c0.9,8.4,3.7,15.9,6.5,23.4
	c9.4,29.9,29,46.8,60.8,49.6c7.5,1.9,15,0.9,23.4,0c0,0,7.5-0.9,13.1-6.5l0,0c18.7-10.3,28.1-29,39.3-45.8c4.7-6.5,7.5-14,9.4-21.5
	C297.5,503.1,292.8,479.7,280.6,457.3z"/>
<path class="st0" d="M696,559.3c0.9-3.7,2.8-7.5,3.7-11.2c12.2-46.8-2.8-71.1-2.8-71.1l0,0c0-0.9-0.9-1.9-0.9-1.9
	c-5.6-10.3-10.3-22.5-15-33.7c-7.5-17.8-16.8-34.6-30.9-46.8c-22.5-20.6-46.8-24.3-64.5,6.5c-3.7,5.6-6.5,11.2-10.3,16.8
	c-15.9,26.2-24.3,55.2-38.4,82.3c-20.6,38.4,6.5,109.4,47.7,119.7c29,6.5,54.3,2.8,76.7-15c8.4-6.5,16.8-14,22.5-22.5
	C687.5,578,692.2,570.5,696,559.3z"/>
<path class="st0" d="M617.4,677.1c-4.7-5.6-21.5-29-22.5-29.9c-8.4-8.4-15.9-13.1-22.4-15c-9.4-3.7-17.8-8.4-25.3-15
	c-4.7-5.6-10.3-10.3-14-16.8c-13.1-19.6-25.3-40.2-37.4-59.9c-8.4-14-17.8-25.3-30.9-34.6c-25.3-15.9-52.4-23.4-81.4-14
	c-26.2,8.4-48.6,24.3-65.5,46.8c-18.7,24.3-39.3,47.7-59.9,70.2c-16.8,17.8-36.5,32.7-51.4,53.3c-19.6,27.1-22.5,56.1-18.7,87
	c1.9,20.6,10.3,38.4,25.3,52.4c14,13.1,32.7,20.6,50.5,27.1c6.5,1.9,14,4.7,20.6,4.7l0,0h0.9c0.9,0,23.4-0.9,36.5-4.7
	c6.5-0.9,13.1-2.8,18.7-6.5l0,0l0,0c16.8-12.2,34.6-15,54.3-17.8c29-3.7,56.1,0,82.3,8.4c37.4,11.2,73,17.8,109.4-1.9
	c22.4-12.2,39.3-28.1,44-52.4C637,730.4,635.2,701.4,617.4,677.1z"/>
</svg>
